<mxfile host="app.diagrams.net" modified="2024-07-20T02:36:47.342Z" agent="Mozilla/5.0 (Windows NT 10.0; Win64; x64) AppleWebKit/537.36 (KHTML, like Gecko) Chrome/126.0.0.0 Safari/537.36 Edg/126.0.0.0" etag="QGXIHO7LcxwKiYWKHXHS" version="24.7.2" type="github">
  <diagram name="第 1 页" id="5_Gx9GKiF-Zx7o1Fp436">
    <mxGraphModel dx="633" dy="354" grid="1" gridSize="10" guides="1" tooltips="1" connect="1" arrows="1" fold="1" page="1" pageScale="1" pageWidth="827" pageHeight="1169" math="0" shadow="0">
      <root>
        <mxCell id="0" />
        <mxCell id="1" parent="0" />
        <mxCell id="-fJ5655pt9NP4fWhVvoE-14" value="" style="edgeStyle=orthogonalEdgeStyle;rounded=0;orthogonalLoop=1;jettySize=auto;html=1;" edge="1" parent="1" source="-fJ5655pt9NP4fWhVvoE-1" target="-fJ5655pt9NP4fWhVvoE-13">
          <mxGeometry relative="1" as="geometry" />
        </mxCell>
        <mxCell id="-fJ5655pt9NP4fWhVvoE-20" value="" style="edgeStyle=orthogonalEdgeStyle;rounded=0;orthogonalLoop=1;jettySize=auto;html=1;" edge="1" parent="1" source="-fJ5655pt9NP4fWhVvoE-1" target="-fJ5655pt9NP4fWhVvoE-19">
          <mxGeometry relative="1" as="geometry">
            <Array as="points">
              <mxPoint x="260" y="110" />
              <mxPoint x="260" y="180" />
            </Array>
          </mxGeometry>
        </mxCell>
        <mxCell id="-fJ5655pt9NP4fWhVvoE-1" value="Input" style="rounded=1;whiteSpace=wrap;html=1;fillColor=#f5f5f5;fontColor=#333333;strokeColor=#666666;" vertex="1" parent="1">
          <mxGeometry x="110" y="100" width="60" height="20" as="geometry" />
        </mxCell>
        <mxCell id="-fJ5655pt9NP4fWhVvoE-16" value="" style="edgeStyle=orthogonalEdgeStyle;rounded=0;orthogonalLoop=1;jettySize=auto;html=1;" edge="1" parent="1" source="-fJ5655pt9NP4fWhVvoE-13" target="-fJ5655pt9NP4fWhVvoE-15">
          <mxGeometry relative="1" as="geometry" />
        </mxCell>
        <mxCell id="-fJ5655pt9NP4fWhVvoE-13" value="Conv" style="rounded=1;whiteSpace=wrap;html=1;fillColor=#dae8fc;strokeColor=#6c8ebf;" vertex="1" parent="1">
          <mxGeometry x="210" y="100" width="60" height="20" as="geometry" />
        </mxCell>
        <mxCell id="-fJ5655pt9NP4fWhVvoE-18" value="" style="edgeStyle=orthogonalEdgeStyle;rounded=0;orthogonalLoop=1;jettySize=auto;html=1;" edge="1" parent="1" source="-fJ5655pt9NP4fWhVvoE-15" target="-fJ5655pt9NP4fWhVvoE-17">
          <mxGeometry relative="1" as="geometry" />
        </mxCell>
        <mxCell id="-fJ5655pt9NP4fWhVvoE-15" value="SRU" style="rounded=1;whiteSpace=wrap;html=1;fillColor=#f8cecc;strokeColor=#b85450;" vertex="1" parent="1">
          <mxGeometry x="330" y="100" width="60" height="20" as="geometry" />
        </mxCell>
        <mxCell id="-fJ5655pt9NP4fWhVvoE-17" value="CRU" style="rounded=1;whiteSpace=wrap;html=1;fillColor=#d5e8d4;strokeColor=#82b366;" vertex="1" parent="1">
          <mxGeometry x="426" y="100" width="60" height="20" as="geometry" />
        </mxCell>
        <mxCell id="-fJ5655pt9NP4fWhVvoE-22" value="" style="edgeStyle=orthogonalEdgeStyle;rounded=0;orthogonalLoop=1;jettySize=auto;html=1;entryX=0.5;entryY=1;entryDx=0;entryDy=0;" edge="1" parent="1" source="-fJ5655pt9NP4fWhVvoE-19" target="-fJ5655pt9NP4fWhVvoE-23">
          <mxGeometry relative="1" as="geometry">
            <mxPoint x="456" y="180" as="targetPoint" />
          </mxGeometry>
        </mxCell>
        <mxCell id="-fJ5655pt9NP4fWhVvoE-19" value="Conv" style="rounded=1;whiteSpace=wrap;html=1;fillColor=#dae8fc;strokeColor=#6c8ebf;" vertex="1" parent="1">
          <mxGeometry x="330" y="170" width="60" height="20" as="geometry" />
        </mxCell>
        <mxCell id="-fJ5655pt9NP4fWhVvoE-23" value="" style="shape=orEllipse;perimeter=ellipsePerimeter;whiteSpace=wrap;html=1;backgroundOutline=1;" vertex="1" parent="1">
          <mxGeometry x="526" y="105" width="10" height="10" as="geometry" />
        </mxCell>
        <mxCell id="-fJ5655pt9NP4fWhVvoE-26" value="" style="edgeStyle=orthogonalEdgeStyle;rounded=0;orthogonalLoop=1;jettySize=auto;html=1;exitX=1;exitY=0.5;exitDx=0;exitDy=0;" edge="1" parent="1" source="-fJ5655pt9NP4fWhVvoE-17">
          <mxGeometry relative="1" as="geometry">
            <mxPoint x="496" y="110" as="sourcePoint" />
            <mxPoint x="526" y="109.83" as="targetPoint" />
          </mxGeometry>
        </mxCell>
        <mxCell id="-fJ5655pt9NP4fWhVvoE-27" value="" style="edgeStyle=orthogonalEdgeStyle;rounded=0;orthogonalLoop=1;jettySize=auto;html=1;exitX=1;exitY=0.5;exitDx=0;exitDy=0;" edge="1" parent="1">
          <mxGeometry relative="1" as="geometry">
            <mxPoint x="536" y="110" as="sourcePoint" />
            <mxPoint x="580" y="110" as="targetPoint" />
            <Array as="points">
              <mxPoint x="557" y="110.26" />
            </Array>
          </mxGeometry>
        </mxCell>
        <mxCell id="-fJ5655pt9NP4fWhVvoE-30" value="" style="shape=cube;whiteSpace=wrap;html=1;boundedLbl=1;backgroundOutline=1;darkOpacity=0.05;darkOpacity2=0.1;fillColor=#dae8fc;strokeColor=#6c8ebf;" vertex="1" parent="1">
          <mxGeometry x="140" y="250" width="30" height="30" as="geometry" />
        </mxCell>
        <mxCell id="-fJ5655pt9NP4fWhVvoE-28" value="" style="shape=cube;whiteSpace=wrap;html=1;boundedLbl=1;backgroundOutline=1;darkOpacity=0.05;darkOpacity2=0.1;fillColor=#dae8fc;strokeColor=#6c8ebf;" vertex="1" parent="1">
          <mxGeometry x="130" y="250" width="30" height="30" as="geometry" />
        </mxCell>
        <mxCell id="-fJ5655pt9NP4fWhVvoE-29" value="" style="shape=cube;whiteSpace=wrap;html=1;boundedLbl=1;backgroundOutline=1;darkOpacity=0.05;darkOpacity2=0.1;fillColor=#dae8fc;strokeColor=#6c8ebf;" vertex="1" parent="1">
          <mxGeometry x="120" y="250" width="30" height="30" as="geometry" />
        </mxCell>
        <mxCell id="-fJ5655pt9NP4fWhVvoE-31" value="" style="shape=cube;whiteSpace=wrap;html=1;boundedLbl=1;backgroundOutline=1;darkOpacity=0.05;darkOpacity2=0.1;fillColor=#dae8fc;strokeColor=#6c8ebf;" vertex="1" parent="1">
          <mxGeometry x="110" y="250" width="30" height="30" as="geometry" />
        </mxCell>
        <mxCell id="-fJ5655pt9NP4fWhVvoE-32" value="" style="shape=cube;whiteSpace=wrap;html=1;boundedLbl=1;backgroundOutline=1;darkOpacity=0.05;darkOpacity2=0.1;fillColor=#dae8fc;strokeColor=#6c8ebf;" vertex="1" parent="1">
          <mxGeometry x="140" y="240" width="30" height="30" as="geometry" />
        </mxCell>
        <mxCell id="-fJ5655pt9NP4fWhVvoE-33" value="" style="shape=cube;whiteSpace=wrap;html=1;boundedLbl=1;backgroundOutline=1;darkOpacity=0.05;darkOpacity2=0.1;fillColor=#dae8fc;strokeColor=#6c8ebf;" vertex="1" parent="1">
          <mxGeometry x="130" y="240" width="30" height="30" as="geometry" />
        </mxCell>
        <mxCell id="-fJ5655pt9NP4fWhVvoE-34" value="" style="shape=cube;whiteSpace=wrap;html=1;boundedLbl=1;backgroundOutline=1;darkOpacity=0.05;darkOpacity2=0.1;fillColor=#dae8fc;strokeColor=#6c8ebf;" vertex="1" parent="1">
          <mxGeometry x="120" y="240" width="30" height="30" as="geometry" />
        </mxCell>
        <mxCell id="-fJ5655pt9NP4fWhVvoE-35" value="" style="shape=cube;whiteSpace=wrap;html=1;boundedLbl=1;backgroundOutline=1;darkOpacity=0.05;darkOpacity2=0.1;fillColor=#dae8fc;strokeColor=#6c8ebf;" vertex="1" parent="1">
          <mxGeometry x="110" y="240" width="30" height="30" as="geometry" />
        </mxCell>
        <mxCell id="-fJ5655pt9NP4fWhVvoE-36" value="" style="shape=cube;whiteSpace=wrap;html=1;boundedLbl=1;backgroundOutline=1;darkOpacity=0.05;darkOpacity2=0.1;fillColor=#dae8fc;strokeColor=#6c8ebf;" vertex="1" parent="1">
          <mxGeometry x="140" y="230" width="30" height="30" as="geometry" />
        </mxCell>
        <mxCell id="-fJ5655pt9NP4fWhVvoE-37" value="" style="shape=cube;whiteSpace=wrap;html=1;boundedLbl=1;backgroundOutline=1;darkOpacity=0.05;darkOpacity2=0.1;fillColor=#dae8fc;strokeColor=#6c8ebf;" vertex="1" parent="1">
          <mxGeometry x="130" y="230" width="30" height="30" as="geometry" />
        </mxCell>
        <mxCell id="-fJ5655pt9NP4fWhVvoE-38" value="" style="shape=cube;whiteSpace=wrap;html=1;boundedLbl=1;backgroundOutline=1;darkOpacity=0.05;darkOpacity2=0.1;fillColor=#dae8fc;strokeColor=#6c8ebf;" vertex="1" parent="1">
          <mxGeometry x="120" y="230" width="30" height="30" as="geometry" />
        </mxCell>
        <mxCell id="-fJ5655pt9NP4fWhVvoE-39" value="" style="shape=cube;whiteSpace=wrap;html=1;boundedLbl=1;backgroundOutline=1;darkOpacity=0.05;darkOpacity2=0.1;fillColor=#dae8fc;strokeColor=#6c8ebf;" vertex="1" parent="1">
          <mxGeometry x="110" y="230" width="30" height="30" as="geometry" />
        </mxCell>
        <mxCell id="-fJ5655pt9NP4fWhVvoE-40" value="" style="shape=cube;whiteSpace=wrap;html=1;boundedLbl=1;backgroundOutline=1;darkOpacity=0.05;darkOpacity2=0.1;fillColor=#dae8fc;strokeColor=#6c8ebf;" vertex="1" parent="1">
          <mxGeometry x="140" y="220" width="30" height="30" as="geometry" />
        </mxCell>
        <mxCell id="-fJ5655pt9NP4fWhVvoE-41" value="" style="shape=cube;whiteSpace=wrap;html=1;boundedLbl=1;backgroundOutline=1;darkOpacity=0.05;darkOpacity2=0.1;fillColor=#dae8fc;strokeColor=#6c8ebf;" vertex="1" parent="1">
          <mxGeometry x="130" y="220" width="30" height="30" as="geometry" />
        </mxCell>
        <mxCell id="-fJ5655pt9NP4fWhVvoE-42" value="" style="shape=cube;whiteSpace=wrap;html=1;boundedLbl=1;backgroundOutline=1;darkOpacity=0.05;darkOpacity2=0.1;fillColor=#dae8fc;strokeColor=#6c8ebf;" vertex="1" parent="1">
          <mxGeometry x="120" y="220" width="30" height="30" as="geometry" />
        </mxCell>
        <mxCell id="-fJ5655pt9NP4fWhVvoE-43" value="" style="shape=cube;whiteSpace=wrap;html=1;boundedLbl=1;backgroundOutline=1;darkOpacity=0.05;darkOpacity2=0.1;fillColor=#dae8fc;strokeColor=#6c8ebf;" vertex="1" parent="1">
          <mxGeometry x="110" y="220" width="30" height="30" as="geometry" />
        </mxCell>
        <mxCell id="-fJ5655pt9NP4fWhVvoE-76" value="" style="shape=cube;whiteSpace=wrap;html=1;boundedLbl=1;backgroundOutline=1;darkOpacity=0.05;darkOpacity2=0.1;fillColor=#fad9d5;strokeColor=#ae4132;" vertex="1" parent="1">
          <mxGeometry x="370" y="224" width="60" height="60" as="geometry" />
        </mxCell>
        <mxCell id="-fJ5655pt9NP4fWhVvoE-77" value="" style="shape=cube;whiteSpace=wrap;html=1;boundedLbl=1;backgroundOutline=1;darkOpacity=0.05;darkOpacity2=0.1;fillColor=#f8cecc;strokeColor=#b85450;" vertex="1" parent="1">
          <mxGeometry x="289" y="249" width="30" height="30" as="geometry" />
        </mxCell>
        <mxCell id="-fJ5655pt9NP4fWhVvoE-78" value="" style="shape=cube;whiteSpace=wrap;html=1;boundedLbl=1;backgroundOutline=1;darkOpacity=0.05;darkOpacity2=0.1;fillColor=#f8cecc;strokeColor=#b85450;" vertex="1" parent="1">
          <mxGeometry x="279" y="249" width="30" height="30" as="geometry" />
        </mxCell>
        <mxCell id="-fJ5655pt9NP4fWhVvoE-79" value="" style="shape=cube;whiteSpace=wrap;html=1;boundedLbl=1;backgroundOutline=1;darkOpacity=0.05;darkOpacity2=0.1;fillColor=#f8cecc;strokeColor=#b85450;" vertex="1" parent="1">
          <mxGeometry x="269" y="249" width="30" height="30" as="geometry" />
        </mxCell>
        <mxCell id="-fJ5655pt9NP4fWhVvoE-80" value="" style="shape=cube;whiteSpace=wrap;html=1;boundedLbl=1;backgroundOutline=1;darkOpacity=0.05;darkOpacity2=0.1;fillColor=#f8cecc;strokeColor=#b85450;" vertex="1" parent="1">
          <mxGeometry x="259" y="249" width="30" height="30" as="geometry" />
        </mxCell>
        <mxCell id="-fJ5655pt9NP4fWhVvoE-81" value="" style="shape=cube;whiteSpace=wrap;html=1;boundedLbl=1;backgroundOutline=1;darkOpacity=0.05;darkOpacity2=0.1;fillColor=#f8cecc;strokeColor=#b85450;" vertex="1" parent="1">
          <mxGeometry x="289" y="239" width="30" height="30" as="geometry" />
        </mxCell>
        <mxCell id="-fJ5655pt9NP4fWhVvoE-82" value="" style="shape=cube;whiteSpace=wrap;html=1;boundedLbl=1;backgroundOutline=1;darkOpacity=0.05;darkOpacity2=0.1;fillColor=#f8cecc;strokeColor=#b85450;" vertex="1" parent="1">
          <mxGeometry x="279" y="239" width="30" height="30" as="geometry" />
        </mxCell>
        <mxCell id="-fJ5655pt9NP4fWhVvoE-83" value="" style="shape=cube;whiteSpace=wrap;html=1;boundedLbl=1;backgroundOutline=1;darkOpacity=0.05;darkOpacity2=0.1;fillColor=#f8cecc;strokeColor=#b85450;" vertex="1" parent="1">
          <mxGeometry x="269" y="239" width="30" height="30" as="geometry" />
        </mxCell>
        <mxCell id="-fJ5655pt9NP4fWhVvoE-84" value="" style="shape=cube;whiteSpace=wrap;html=1;boundedLbl=1;backgroundOutline=1;darkOpacity=0.05;darkOpacity2=0.1;fillColor=#f8cecc;strokeColor=#b85450;" vertex="1" parent="1">
          <mxGeometry x="259" y="239" width="30" height="30" as="geometry" />
        </mxCell>
        <mxCell id="-fJ5655pt9NP4fWhVvoE-85" value="" style="shape=cube;whiteSpace=wrap;html=1;boundedLbl=1;backgroundOutline=1;darkOpacity=0.05;darkOpacity2=0.1;fillColor=#f8cecc;strokeColor=#b85450;" vertex="1" parent="1">
          <mxGeometry x="289" y="229" width="30" height="30" as="geometry" />
        </mxCell>
        <mxCell id="-fJ5655pt9NP4fWhVvoE-86" value="" style="shape=cube;whiteSpace=wrap;html=1;boundedLbl=1;backgroundOutline=1;darkOpacity=0.05;darkOpacity2=0.1;fillColor=#f8cecc;strokeColor=#b85450;" vertex="1" parent="1">
          <mxGeometry x="279" y="229" width="30" height="30" as="geometry" />
        </mxCell>
        <mxCell id="-fJ5655pt9NP4fWhVvoE-87" value="" style="shape=cube;whiteSpace=wrap;html=1;boundedLbl=1;backgroundOutline=1;darkOpacity=0.05;darkOpacity2=0.1;fillColor=#f8cecc;strokeColor=#b85450;" vertex="1" parent="1">
          <mxGeometry x="269" y="229" width="30" height="30" as="geometry" />
        </mxCell>
        <mxCell id="-fJ5655pt9NP4fWhVvoE-88" value="" style="shape=cube;whiteSpace=wrap;html=1;boundedLbl=1;backgroundOutline=1;darkOpacity=0.05;darkOpacity2=0.1;fillColor=#f8cecc;strokeColor=#b85450;" vertex="1" parent="1">
          <mxGeometry x="259" y="229" width="30" height="30" as="geometry" />
        </mxCell>
        <mxCell id="-fJ5655pt9NP4fWhVvoE-89" value="" style="shape=cube;whiteSpace=wrap;html=1;boundedLbl=1;backgroundOutline=1;darkOpacity=0.05;darkOpacity2=0.1;fillColor=#f8cecc;strokeColor=#b85450;" vertex="1" parent="1">
          <mxGeometry x="289" y="219" width="30" height="30" as="geometry" />
        </mxCell>
        <mxCell id="-fJ5655pt9NP4fWhVvoE-90" value="" style="shape=cube;whiteSpace=wrap;html=1;boundedLbl=1;backgroundOutline=1;darkOpacity=0.05;darkOpacity2=0.1;fillColor=#f8cecc;strokeColor=#b85450;" vertex="1" parent="1">
          <mxGeometry x="279" y="219" width="30" height="30" as="geometry" />
        </mxCell>
        <mxCell id="-fJ5655pt9NP4fWhVvoE-91" value="" style="shape=cube;whiteSpace=wrap;html=1;boundedLbl=1;backgroundOutline=1;darkOpacity=0.05;darkOpacity2=0.1;fillColor=#f8cecc;strokeColor=#b85450;" vertex="1" parent="1">
          <mxGeometry x="269" y="219" width="30" height="30" as="geometry" />
        </mxCell>
        <mxCell id="-fJ5655pt9NP4fWhVvoE-92" value="" style="shape=cube;whiteSpace=wrap;html=1;boundedLbl=1;backgroundOutline=1;darkOpacity=0.05;darkOpacity2=0.1;fillColor=#f8cecc;strokeColor=#b85450;" vertex="1" parent="1">
          <mxGeometry x="259" y="219" width="30" height="30" as="geometry" />
        </mxCell>
        <mxCell id="-fJ5655pt9NP4fWhVvoE-93" value="" style="endArrow=classic;html=1;rounded=0;" edge="1" parent="1">
          <mxGeometry width="50" height="50" relative="1" as="geometry">
            <mxPoint x="179" y="250" as="sourcePoint" />
            <mxPoint x="249" y="250" as="targetPoint" />
          </mxGeometry>
        </mxCell>
        <mxCell id="-fJ5655pt9NP4fWhVvoE-94" value="spatial&amp;nbsp;&lt;div&gt;reconstract&lt;/div&gt;" style="edgeLabel;html=1;align=center;verticalAlign=middle;resizable=0;points=[];" vertex="1" connectable="0" parent="-fJ5655pt9NP4fWhVvoE-93">
          <mxGeometry x="0.2694" relative="1" as="geometry">
            <mxPoint x="-12" y="14" as="offset" />
          </mxGeometry>
        </mxCell>
        <mxCell id="-fJ5655pt9NP4fWhVvoE-112" value="" style="endArrow=none;html=1;rounded=0;fillColor=#fad9d5;strokeColor=#ae4132;" edge="1" parent="1">
          <mxGeometry width="50" height="50" relative="1" as="geometry">
            <mxPoint x="380" y="234" as="sourcePoint" />
            <mxPoint x="420" y="234" as="targetPoint" />
          </mxGeometry>
        </mxCell>
        <mxCell id="-fJ5655pt9NP4fWhVvoE-113" value="" style="endArrow=none;html=1;rounded=0;fillColor=#fad9d5;strokeColor=#ae4132;" edge="1" parent="1">
          <mxGeometry width="50" height="50" relative="1" as="geometry">
            <mxPoint x="385" y="239" as="sourcePoint" />
            <mxPoint x="425" y="239" as="targetPoint" />
          </mxGeometry>
        </mxCell>
        <mxCell id="-fJ5655pt9NP4fWhVvoE-114" value="" style="endArrow=none;html=1;rounded=0;fillColor=#fad9d5;strokeColor=#ae4132;" edge="1" parent="1">
          <mxGeometry width="50" height="50" relative="1" as="geometry">
            <mxPoint x="375" y="229" as="sourcePoint" />
            <mxPoint x="415" y="229" as="targetPoint" />
          </mxGeometry>
        </mxCell>
        <mxCell id="-fJ5655pt9NP4fWhVvoE-115" value="" style="endArrow=none;html=1;rounded=0;fillColor=#fad9d5;strokeColor=#ae4132;" edge="1" parent="1">
          <mxGeometry width="50" height="50" relative="1" as="geometry">
            <mxPoint x="380" y="274" as="sourcePoint" />
            <mxPoint x="380" y="234" as="targetPoint" />
          </mxGeometry>
        </mxCell>
        <mxCell id="-fJ5655pt9NP4fWhVvoE-116" value="" style="endArrow=none;html=1;rounded=0;fillColor=#fad9d5;strokeColor=#ae4132;" edge="1" parent="1">
          <mxGeometry width="50" height="50" relative="1" as="geometry">
            <mxPoint x="385" y="279" as="sourcePoint" />
            <mxPoint x="385" y="239" as="targetPoint" />
          </mxGeometry>
        </mxCell>
        <mxCell id="-fJ5655pt9NP4fWhVvoE-117" value="" style="endArrow=none;html=1;rounded=0;fillColor=#fad9d5;strokeColor=#ae4132;" edge="1" parent="1">
          <mxGeometry width="50" height="50" relative="1" as="geometry">
            <mxPoint x="375" y="269" as="sourcePoint" />
            <mxPoint x="375" y="229" as="targetPoint" />
          </mxGeometry>
        </mxCell>
        <mxCell id="-fJ5655pt9NP4fWhVvoE-118" value="" style="shape=cube;whiteSpace=wrap;html=1;boundedLbl=1;backgroundOutline=1;darkOpacity=0.05;darkOpacity2=0.1;fillColor=#d5e8d4;strokeColor=#82b366;" vertex="1" parent="1">
          <mxGeometry x="520" y="224" width="60" height="60" as="geometry" />
        </mxCell>
        <mxCell id="-fJ5655pt9NP4fWhVvoE-119" value="" style="endArrow=none;html=1;rounded=0;fillColor=#d5e8d4;strokeColor=#82b366;" edge="1" parent="1">
          <mxGeometry width="50" height="50" relative="1" as="geometry">
            <mxPoint x="530" y="234" as="sourcePoint" />
            <mxPoint x="570" y="234" as="targetPoint" />
          </mxGeometry>
        </mxCell>
        <mxCell id="-fJ5655pt9NP4fWhVvoE-120" value="" style="endArrow=none;html=1;rounded=0;fillColor=#d5e8d4;strokeColor=#82b366;" edge="1" parent="1">
          <mxGeometry width="50" height="50" relative="1" as="geometry">
            <mxPoint x="535" y="239" as="sourcePoint" />
            <mxPoint x="575" y="239" as="targetPoint" />
          </mxGeometry>
        </mxCell>
        <mxCell id="-fJ5655pt9NP4fWhVvoE-121" value="" style="endArrow=none;html=1;rounded=0;fillColor=#d5e8d4;strokeColor=#82b366;" edge="1" parent="1">
          <mxGeometry width="50" height="50" relative="1" as="geometry">
            <mxPoint x="525" y="229" as="sourcePoint" />
            <mxPoint x="565" y="229" as="targetPoint" />
          </mxGeometry>
        </mxCell>
        <mxCell id="-fJ5655pt9NP4fWhVvoE-122" value="" style="endArrow=none;html=1;rounded=0;fillColor=#d5e8d4;strokeColor=#82b366;" edge="1" parent="1">
          <mxGeometry width="50" height="50" relative="1" as="geometry">
            <mxPoint x="530" y="274" as="sourcePoint" />
            <mxPoint x="530" y="234" as="targetPoint" />
          </mxGeometry>
        </mxCell>
        <mxCell id="-fJ5655pt9NP4fWhVvoE-123" value="" style="endArrow=none;html=1;rounded=0;fillColor=#d5e8d4;strokeColor=#82b366;" edge="1" parent="1">
          <mxGeometry width="50" height="50" relative="1" as="geometry">
            <mxPoint x="535" y="279" as="sourcePoint" />
            <mxPoint x="535" y="239" as="targetPoint" />
          </mxGeometry>
        </mxCell>
        <mxCell id="-fJ5655pt9NP4fWhVvoE-124" value="" style="endArrow=none;html=1;rounded=0;fillColor=#d5e8d4;strokeColor=#82b366;" edge="1" parent="1">
          <mxGeometry width="50" height="50" relative="1" as="geometry">
            <mxPoint x="525" y="269" as="sourcePoint" />
            <mxPoint x="525" y="229" as="targetPoint" />
          </mxGeometry>
        </mxCell>
        <mxCell id="-fJ5655pt9NP4fWhVvoE-125" value="" style="endArrow=classic;html=1;rounded=0;" edge="1" parent="1">
          <mxGeometry width="50" height="50" relative="1" as="geometry">
            <mxPoint x="440" y="254" as="sourcePoint" />
            <mxPoint x="510" y="254" as="targetPoint" />
          </mxGeometry>
        </mxCell>
        <mxCell id="-fJ5655pt9NP4fWhVvoE-126" value="channel&lt;div&gt;reconstract&lt;/div&gt;" style="edgeLabel;html=1;align=center;verticalAlign=middle;resizable=0;points=[];" vertex="1" connectable="0" parent="-fJ5655pt9NP4fWhVvoE-125">
          <mxGeometry x="0.2694" relative="1" as="geometry">
            <mxPoint x="-14" y="15" as="offset" />
          </mxGeometry>
        </mxCell>
      </root>
    </mxGraphModel>
  </diagram>
</mxfile>
